# xmcd
#
# Track frame offsets:
# 150
# 16020
# 33560
# 43465
# 57082
# 69320
# 82907
# 101972
# 115507
# 130387
# 150010
# 170122
# 194930
# 212762
#
# Disc length: 3171 seconds
#
#
# Revision: 0
# Processed by: cddbd v1.5.1PL2 Copyright (c) Steve Scherf et al.
# Submitted via: Nero 7, 0, 5, 4 
#
DISCID=bf0c610e
DTITLE=Phil Burdett - Patchouli Electric
DYEAR=1996
DGENRE=country
TTITLE0=Well Y'Know How It Is
TTITLE1=Pick Me Up
TTITLE2=Life Model
TTITLE3=Melancholy 'bout Me All
TTITLE4=Province Of Doubt
TTITLE5=More Hurt
TTITLE6=Alun Lewis and Y'Get What Y'Given No More
TTITLE7=Radio Anywhere
TTITLE8=These Things Don't Happen
TTITLE9=Felt Like Sin
TTITLE10=San Antonio Farewell
TTITLE11=Broken Down Joy
TTITLE12=Messed Up Mind
TTITLE13=Woman Of Warm Rain
EXTD=
EXTT0=
EXTT1=
EXTT2=
EXTT3=
EXTT4=
EXTT5=
EXTT6=
EXTT7=
EXTT8=
EXTT9=
EXTT10=
EXTT11=
EXTT12=
EXTT13=
PLAYORDER=
